<svg width="83" height="83" viewBox="0 0 83 83" fill="none" xmlns="http://www.w3.org/2000/svg">
<path opacity="0.4" d="M58.5105 0H23.9567C8.9477 0 0 8.9477 0 23.9567V58.4693C0 73.5196 8.9477 82.4673 23.9567 82.4673H58.4693C73.4783 82.4673 82.426 73.5196 82.426 58.5105V23.9567C82.4673 8.9477 73.5196 0 58.5105 0Z" fill="#2E2E2E"/>
<path d="M61.8505 25.771H20.6168C18.9262 25.771 17.5243 24.369 17.5243 22.6785C17.5243 20.9879 18.9262 19.5859 20.6168 19.5859H61.8505C63.541 19.5859 64.943 20.9879 64.943 22.6785C64.943 24.369 63.541 25.771 61.8505 25.771Z" fill="white"/>
<path d="M61.8505 44.3257H20.6168C18.9262 44.3257 17.5243 42.9237 17.5243 41.2331C17.5243 39.5426 18.9262 38.1406 20.6168 38.1406H61.8505C63.541 38.1406 64.943 39.5426 64.943 41.2331C64.943 42.9237 63.541 44.3257 61.8505 44.3257Z" fill="white"/>
<path d="M61.8505 62.8813H20.6168C18.9262 62.8813 17.5243 61.4794 17.5243 59.7888C17.5243 58.0982 18.9262 56.6963 20.6168 56.6963H61.8505C63.541 56.6963 64.943 58.0982 64.943 59.7888C64.943 61.4794 63.541 62.8813 61.8505 62.8813Z" fill="white"/>
</svg>
