<svg width="25" height="24" viewBox="0 0 25 24" fill="none" xmlns="http://www.w3.org/2000/svg">
<path d="M17.7248 0.358145L24.6418 7.27515C25.1194 7.75268 25.1194 8.52688 24.6418 9.00441L15.131 18.5153L12.537 19.3799L10.8078 21.1091C10.3303 21.5867 9.5561 21.5867 9.07857 21.1091L3.89082 15.9214C3.4133 15.4439 3.4133 14.6697 3.89082 14.1922L5.62008 12.463L6.48469 9.86898L15.9956 0.358145C16.4731 -0.119382 17.2474 -0.119382 17.7248 0.358145ZM18.5895 4.68127L10.8078 12.463L12.537 14.1922L20.3187 6.41053L18.5895 4.68127ZM3.45851 18.083L6.91702 21.5415L5.18776 23.2707L0 21.5415L3.45851 18.083Z" fill="white"/>
</svg>
