<svg xmlns="http://www.w3.org/2000/svg" xmlns:xlink="http://www.w3.org/1999/xlink" width="500" zoomAndPan="magnify" viewBox="0 0 375 374.999991" height="500" preserveAspectRatio="xMidYMid meet" version="1.0"><defs><clipPath id="f9473b6f15"><path d="M 58.398438 42.539062 L 289.398438 42.539062 L 289.398438 321.539062 L 58.398438 321.539062 Z M 58.398438 42.539062 " clip-rule="nonzero"/></clipPath><clipPath id="43445d70df"><path d="M 32 155 L 158 155 L 158 279.539062 L 32 279.539062 Z M 32 155 " clip-rule="nonzero"/></clipPath><clipPath id="905325f2a1"><path d="M 70 214 L 147 214 L 147 279.539062 L 70 279.539062 Z M 70 214 " clip-rule="nonzero"/></clipPath><clipPath id="8e38ef7770"><path d="M 204 50 L 231.398438 50 L 231.398438 78 L 204 78 Z M 204 50 " clip-rule="nonzero"/></clipPath><clipPath id="6580ea1273"><path d="M 158 0.539062 L 176 0.539062 L 176 18 L 158 18 Z M 158 0.539062 " clip-rule="nonzero"/></clipPath><clipPath id="0d9de88b3b"><rect x="0" width="232" y="0" height="280"/></clipPath></defs><g clip-path="url(#f9473b6f15)"><g transform="matrix(1, 0, 0, 1, 58, 42)"><g clip-path="url(#0d9de88b3b)"><path fill="#f9ed32" d="M 110.488281 39.011719 C 109.496094 39.011719 108.511719 38.914062 107.539062 38.722656 C 106.566406 38.527344 105.621094 38.242188 104.703125 37.859375 C 103.785156 37.480469 102.914062 37.015625 102.089844 36.464844 C 101.265625 35.910156 100.503906 35.285156 99.800781 34.582031 C 99.097656 33.878906 98.472656 33.117188 97.921875 32.289062 C 97.367188 31.464844 96.902344 30.59375 96.523438 29.675781 C 96.140625 28.757812 95.855469 27.808594 95.660156 26.835938 C 95.46875 25.863281 95.371094 24.878906 95.367188 23.882812 C 95.367188 22.890625 95.464844 21.90625 95.65625 20.929688 C 95.851562 19.957031 96.136719 19.011719 96.515625 18.09375 C 96.894531 17.171875 97.359375 16.300781 97.910156 15.476562 C 98.460938 14.648438 99.085938 13.882812 99.785156 13.179688 C 100.488281 12.476562 101.25 11.847656 102.074219 11.296875 C 102.898438 10.742188 103.769531 10.277344 104.6875 9.894531 C 105.601562 9.511719 106.546875 9.226562 107.519531 9.03125 C 108.492188 8.835938 109.476562 8.738281 110.46875 8.734375 C 111.460938 8.734375 112.441406 8.828125 113.417969 9.023438 C 114.390625 9.214844 115.335938 9.5 116.253906 9.878906 C 117.167969 10.257812 118.039062 10.722656 118.867188 11.273438 C 119.691406 11.824219 120.457031 12.449219 121.160156 13.152344 C 121.863281 13.855469 122.488281 14.617188 123.042969 15.441406 C 123.59375 16.265625 124.0625 17.140625 124.445312 18.054688 C 124.824219 18.972656 125.113281 19.917969 125.308594 20.894531 C 125.503906 21.867188 125.601562 22.851562 125.605469 23.84375 C 125.605469 24.839844 125.507812 25.824219 125.316406 26.800781 C 125.121094 27.777344 124.835938 28.722656 124.453125 29.644531 C 124.074219 30.5625 123.609375 31.433594 123.058594 32.261719 C 122.507812 33.089844 121.878906 33.855469 121.179688 34.558594 C 120.476562 35.265625 119.714844 35.894531 118.886719 36.445312 C 118.0625 37 117.191406 37.46875 116.273438 37.851562 C 115.355469 38.230469 114.410156 38.519531 113.4375 38.714844 C 112.464844 38.910156 111.480469 39.011719 110.488281 39.011719 Z M 110.488281 39.011719 " fill-opacity="0.78" fill-rule="evenodd"/><path fill="#662d91" d="M 37.253906 50.683594 C 33.148438 55.453125 29.75 60.6875 27.066406 66.382812 C 24.382812 72.078125 22.503906 78.027344 21.4375 84.234375 C 18.371094 102.179688 23.046875 118.792969 19.769531 129.960938 C 19 132.464844 17.972656 134.855469 16.6875 137.136719 C 17.453125 137.582031 18.230469 138.007812 19.019531 138.410156 C 19.808594 138.8125 20.609375 139.1875 21.421875 139.546875 C 22.234375 139.902344 23.054688 140.234375 23.886719 140.542969 C 24.71875 140.851562 25.558594 141.136719 26.402344 141.394531 C 27.25 141.65625 28.105469 141.890625 28.964844 142.101562 C 29.828125 142.3125 30.691406 142.5 31.5625 142.664062 C 32.433594 142.824219 33.3125 142.960938 34.191406 143.070312 C 35.070312 143.183594 35.949219 143.269531 36.835938 143.328125 C 37.71875 143.390625 38.605469 143.425781 39.492188 143.4375 C 40.375 143.445312 41.261719 143.429688 42.148438 143.390625 C 43.03125 143.347656 43.917969 143.28125 44.796875 143.191406 C 45.679688 143.097656 46.558594 142.980469 47.433594 142.839844 C 48.308594 142.695312 49.175781 142.53125 50.042969 142.335938 C 50.90625 142.144531 51.765625 141.929688 52.617188 141.6875 C 53.472656 141.445312 54.316406 141.179688 55.152344 140.890625 C 55.992188 140.601562 56.820312 140.285156 57.640625 139.949219 C 58.460938 139.609375 59.269531 139.25 60.066406 138.867188 C 60.867188 138.480469 61.652344 138.074219 62.429688 137.644531 C 63.203125 137.214844 63.96875 136.765625 64.71875 136.292969 C 65.46875 135.820312 66.203125 135.324219 66.925781 134.808594 C 67.644531 134.292969 68.351562 133.757812 69.042969 133.203125 C 69.734375 132.648438 70.40625 132.070312 71.066406 131.476562 C 71.722656 130.882812 72.363281 130.269531 72.988281 129.636719 C 73.609375 129.007812 74.214844 128.359375 74.796875 127.691406 C 75.382812 127.027344 75.949219 126.34375 76.496094 125.644531 C 77.042969 124.945312 77.570312 124.230469 78.074219 123.503906 C 78.582031 122.773438 79.066406 122.03125 79.527344 121.273438 C 79.992188 120.519531 80.433594 119.75 80.851562 118.96875 C 81.269531 118.183594 81.667969 117.390625 82.039062 116.585938 C 82.414062 115.78125 82.761719 114.96875 83.089844 114.144531 C 83.417969 113.316406 83.71875 112.484375 84 111.640625 C 84.277344 110.800781 84.535156 109.949219 84.765625 109.09375 C 84.996094 108.238281 85.199219 107.375 85.382812 106.503906 C 85.5625 105.636719 85.71875 104.761719 85.847656 103.886719 C 85.980469 103.007812 86.085938 102.128906 86.167969 101.242188 C 86.246094 100.359375 86.300781 99.476562 86.332031 98.585938 C 86.363281 97.699219 86.367188 96.8125 86.347656 95.925781 C 86.324219 95.039062 86.277344 94.152344 86.207031 93.269531 C 86.136719 92.382812 86.039062 91.503906 85.917969 90.625 C 85.792969 89.746094 85.648438 88.871094 85.472656 88 C 85.300781 87.128906 85.105469 86.265625 84.882812 85.40625 C 84.660156 84.546875 84.414062 83.695312 84.144531 82.847656 C 83.875 82.003906 83.578125 81.167969 83.261719 80.339844 C 82.941406 79.511719 82.601562 78.691406 82.234375 77.882812 C 81.871094 77.074219 81.480469 76.277344 81.070312 75.492188 C 80.660156 74.707031 80.226562 73.933594 79.769531 73.171875 C 79.316406 72.410156 78.839844 71.664062 78.339844 70.929688 C 77.84375 70.195312 77.324219 69.476562 76.785156 68.773438 C 76.246094 68.066406 75.683594 67.378906 75.105469 66.707031 C 74.527344 66.035156 73.929688 65.378906 73.3125 64.742188 C 72.699219 64.105469 72.0625 63.484375 71.410156 62.882812 C 70.761719 62.285156 70.089844 61.703125 69.40625 61.136719 C 68.722656 60.574219 68.019531 60.03125 67.304688 59.511719 C 66.589844 58.988281 65.859375 58.484375 65.113281 58.003906 C 64.367188 57.523438 63.609375 57.066406 62.839844 56.628906 C 62.066406 56.191406 61.285156 55.777344 60.488281 55.382812 C 59.695312 54.992188 58.886719 54.625 58.074219 54.277344 C 57.257812 53.933594 56.429688 53.609375 55.597656 53.3125 C 54.761719 53.011719 53.917969 52.738281 53.070312 52.488281 C 52.21875 52.238281 51.363281 52.011719 50.5 51.8125 C 49.636719 51.609375 48.765625 51.433594 47.894531 51.285156 C 47.019531 51.132812 46.144531 51.007812 45.261719 50.90625 C 44.382812 50.804688 43.5 50.730469 42.617188 50.679688 C 41.730469 50.628906 40.84375 50.605469 39.960938 50.605469 C 39.085938 50.605469 38.164062 50.636719 37.253906 50.683594 Z M 37.253906 50.683594 " fill-opacity="0.78" fill-rule="evenodd"/><path fill="#92278f" d="M 20.535156 92.128906 C 19.566406 106.996094 22.5625 120.453125 19.769531 130 C 14.988281 146.304688 -6.199219 161.074219 3.699219 169.460938 C 6.832031 171.976562 12.226562 172.140625 15.386719 174.609375 C 20.417969 178.542969 16.976562 182.792969 16.53125 185.863281 C 16.316406 187.320312 17.636719 189.660156 21.988281 192.503906 C 18.703125 194.933594 19.003906 196.992188 20.175781 198.886719 C 21.777344 199.984375 23.425781 201.011719 25.121094 201.960938 C 26.816406 202.910156 28.550781 203.785156 30.324219 204.578125 C 32.097656 205.371094 33.902344 206.082031 35.742188 206.714844 C 37.578125 207.34375 39.441406 207.890625 41.328125 208.351562 C 43.214844 208.8125 45.121094 209.1875 47.042969 209.476562 C 48.960938 209.765625 50.890625 209.96875 52.832031 210.082031 C 54.769531 210.195312 56.710938 210.222656 58.652344 210.160156 C 60.59375 210.101562 62.527344 209.953125 64.457031 209.714844 C 66.386719 209.480469 68.296875 209.15625 70.199219 208.746094 C 72.097656 208.335938 73.972656 207.84375 75.828125 207.261719 C 77.683594 206.683594 79.507812 206.019531 81.300781 205.277344 C 83.09375 204.53125 84.851562 203.707031 86.574219 202.804688 C 88.292969 201.898438 89.96875 200.917969 91.601562 199.863281 C 93.230469 198.808594 94.8125 197.679688 96.34375 196.484375 C 97.871094 195.285156 99.347656 194.019531 100.761719 192.6875 C 102.175781 191.355469 103.53125 189.960938 104.820312 188.507812 C 106.109375 187.050781 107.332031 185.542969 108.484375 183.976562 C 109.636719 182.414062 110.71875 180.796875 111.726562 179.136719 C 112.734375 177.472656 113.664062 175.765625 114.519531 174.019531 C 115.375 172.273438 116.148438 170.492188 116.839844 168.671875 C 117.53125 166.855469 118.140625 165.011719 118.667969 163.140625 C 119.195312 161.265625 119.636719 159.375 119.992188 157.460938 C 120.347656 155.550781 120.617188 153.625 120.796875 151.6875 C 120.980469 149.75 121.074219 147.8125 121.082031 145.867188 C 121.085938 143.921875 121.003906 141.980469 120.835938 140.042969 C 120.667969 138.101562 120.414062 136.175781 120.070312 134.261719 C 119.726562 132.347656 119.296875 130.453125 118.785156 128.578125 C 118.269531 126.699219 117.675781 124.851562 116.992188 123.03125 C 116.3125 121.207031 115.550781 119.421875 114.707031 117.667969 C 113.867188 115.914062 112.949219 114.203125 111.949219 112.535156 C 110.953125 110.863281 109.882812 109.242188 108.742188 107.671875 C 107.597656 106.097656 106.386719 104.578125 105.105469 103.117188 C 103.828125 101.652344 102.484375 100.25 101.078125 98.910156 C 99.671875 97.566406 98.207031 96.292969 96.683594 95.082031 C 95.164062 93.875 93.589844 92.738281 91.964844 91.671875 C 90.339844 90.605469 88.671875 89.613281 86.957031 88.699219 C 85.242188 87.78125 83.492188 86.945312 81.703125 86.1875 C 79.910156 85.433594 78.09375 84.757812 76.242188 84.164062 C 74.390625 83.574219 72.519531 83.066406 70.621094 82.644531 C 68.726562 82.222656 66.8125 81.886719 64.886719 81.636719 C 62.960938 81.386719 61.027344 81.226562 59.085938 81.152344 C 57.144531 81.074219 55.203125 81.089844 53.265625 81.191406 C 51.324219 81.292969 49.394531 81.480469 47.46875 81.757812 C 45.546875 82.035156 43.640625 82.394531 41.75 82.84375 C 39.859375 83.292969 37.996094 83.828125 36.152344 84.445312 C 34.3125 85.0625 32.5 85.761719 30.722656 86.542969 C 28.941406 87.324219 27.203125 88.1875 25.5 89.125 C 23.800781 90.0625 22.144531 91.078125 20.535156 92.167969 Z M 20.535156 92.128906 " fill-opacity="0.78" fill-rule="evenodd"/><g clip-path="url(#43445d70df)"><path fill="#007fc6" d="M 34.335938 234.753906 C 58.820312 244.738281 91.597656 211.257812 96.007812 279.539062 C 111.929688 269.070312 128.796875 260.476562 146.617188 253.75 C 147.351562 252.667969 148.050781 251.566406 148.71875 250.441406 C 149.382812 249.316406 150.011719 248.167969 150.605469 247.003906 C 151.199219 245.839844 151.757812 244.660156 152.277344 243.460938 C 152.796875 242.261719 153.28125 241.046875 153.722656 239.816406 C 154.167969 238.585938 154.574219 237.34375 154.941406 236.089844 C 155.304688 234.835938 155.632812 233.570312 155.921875 232.292969 C 156.207031 231.019531 156.457031 229.734375 156.664062 228.445312 C 156.871094 227.152344 157.039062 225.859375 157.164062 224.558594 C 157.289062 223.253906 157.375 221.953125 157.421875 220.644531 C 157.464844 219.339844 157.46875 218.03125 157.433594 216.722656 C 157.398438 215.417969 157.320312 214.113281 157.203125 212.808594 C 157.082031 211.507812 156.925781 210.210938 156.726562 208.917969 C 156.527344 207.625 156.289062 206.34375 156.007812 205.066406 C 155.730469 203.789062 155.410156 202.519531 155.050781 201.261719 C 154.691406 200.007812 154.296875 198.761719 153.859375 197.527344 C 153.421875 196.296875 152.949219 195.078125 152.4375 193.875 C 151.925781 192.671875 151.375 191.488281 150.789062 190.320312 C 150.203125 189.152344 149.582031 188.003906 148.921875 186.875 C 148.265625 185.746094 147.570312 184.636719 146.84375 183.550781 C 146.117188 182.464844 145.355469 181.402344 144.5625 180.363281 C 143.769531 179.324219 142.945312 178.3125 142.089844 177.328125 C 141.230469 176.339844 140.34375 175.382812 139.429688 174.449219 C 138.511719 173.519531 137.566406 172.617188 136.59375 171.746094 C 135.621094 170.875 134.621094 170.035156 133.597656 169.222656 C 132.570312 168.414062 131.519531 167.636719 130.445312 166.894531 C 129.371094 166.152344 128.277344 165.441406 127.160156 164.765625 C 126.039062 164.089844 124.902344 163.453125 123.742188 162.847656 C 122.585938 162.246094 121.410156 161.679688 120.214844 161.148438 C 119.023438 160.617188 117.8125 160.125 116.589844 159.671875 C 115.363281 159.21875 114.128906 158.800781 112.878906 158.425781 C 111.628906 158.046875 110.367188 157.710938 109.09375 157.414062 C 107.824219 157.113281 106.542969 156.855469 105.257812 156.640625 C 103.96875 156.421875 102.675781 156.242188 101.378906 156.105469 C 100.078125 155.96875 98.777344 155.875 97.472656 155.820312 C 96.167969 155.761719 94.863281 155.75 93.558594 155.777344 C 92.253906 155.800781 90.949219 155.867188 89.648438 155.976562 C 88.347656 156.085938 87.050781 156.234375 85.757812 156.421875 C 84.464844 156.613281 83.183594 156.839844 81.902344 157.113281 C 80.625 157.382812 79.359375 157.691406 78.101562 158.039062 C 76.84375 158.390625 75.597656 158.777344 74.363281 159.203125 C 73.128906 159.632812 71.90625 160.097656 70.703125 160.601562 C 69.5 161.105469 68.308594 161.644531 67.140625 162.222656 C 65.96875 162.800781 64.816406 163.414062 63.683594 164.0625 C 62.550781 164.714844 61.4375 165.398438 60.347656 166.117188 C 59.257812 166.839844 58.191406 167.589844 57.148438 168.378906 C 56.105469 169.164062 55.085938 169.984375 54.097656 170.832031 C 53.105469 171.683594 52.140625 172.5625 51.203125 173.472656 C 50.265625 174.386719 49.359375 175.324219 48.480469 176.292969 C 47.601562 177.257812 46.753906 178.253906 45.9375 179.273438 C 45.121094 180.292969 44.335938 181.339844 43.585938 182.410156 C 42.835938 183.476562 42.117188 184.570312 41.4375 185.683594 C 40.753906 186.796875 40.105469 187.933594 39.492188 189.089844 C 38.882812 190.242188 38.308594 191.417969 37.769531 192.609375 C 37.230469 193.796875 36.726562 195.003906 36.265625 196.226562 C 35.800781 197.449219 35.378906 198.6875 34.992188 199.933594 C 34.605469 201.183594 34.257812 202.445312 33.949219 203.714844 C 33.644531 204.984375 33.375 206.265625 33.148438 207.550781 C 32.921875 208.839844 32.734375 210.132812 32.585938 211.433594 C 32.441406 212.730469 32.332031 214.035156 32.269531 215.339844 C 32.203125 216.644531 32.179688 217.953125 32.195312 219.257812 C 32.210938 220.566406 32.269531 221.871094 32.367188 223.175781 C 32.464844 224.480469 32.601562 225.777344 32.78125 227.074219 C 32.960938 228.371094 33.179688 229.65625 33.4375 230.9375 C 33.695312 232.21875 33.996094 233.492188 34.335938 234.753906 Z M 34.335938 234.753906 " fill-opacity="0.78" fill-rule="evenodd"/></g><g clip-path="url(#905325f2a1)"><path fill="#01a6e6" d="M 70.28125 235.105469 C 83.21875 235.648438 93.652344 243.105469 96.007812 279.539062 C 111.839844 269.132812 128.609375 260.570312 146.316406 253.855469 C 146.292969 252.75 146.21875 251.648438 146.105469 250.546875 C 145.988281 249.449219 145.828125 248.355469 145.621094 247.269531 C 145.417969 246.183594 145.167969 245.105469 144.875 244.042969 C 144.582031 242.976562 144.246094 241.921875 143.867188 240.882812 C 143.488281 239.847656 143.066406 238.824219 142.605469 237.820312 C 142.144531 236.816406 141.640625 235.832031 141.097656 234.871094 C 140.558594 233.90625 139.976562 232.96875 139.359375 232.050781 C 138.738281 231.136719 138.082031 230.246094 137.390625 229.386719 C 136.699219 228.523438 135.976562 227.691406 135.214844 226.886719 C 134.457031 226.085938 133.667969 225.3125 132.84375 224.574219 C 132.023438 223.839844 131.171875 223.132812 130.292969 222.464844 C 129.414062 221.796875 128.507812 221.164062 127.578125 220.570312 C 126.644531 219.976562 125.691406 219.421875 124.71875 218.902344 C 123.742188 218.386719 122.746094 217.910156 121.730469 217.476562 C 120.714844 217.039062 119.683594 216.648438 118.636719 216.296875 C 117.589844 215.945312 116.53125 215.636719 115.457031 215.375 C 114.386719 215.109375 113.304688 214.890625 112.214844 214.714844 C 111.125 214.535156 110.03125 214.40625 108.929688 214.320312 C 107.828125 214.234375 106.726562 214.191406 105.621094 214.195312 C 104.519531 214.199219 103.414062 214.246094 102.316406 214.339844 C 101.214844 214.433594 100.121094 214.574219 99.03125 214.757812 C 97.941406 214.941406 96.863281 215.167969 95.792969 215.4375 C 94.722656 215.710938 93.664062 216.023438 92.621094 216.382812 C 91.574219 216.742188 90.546875 217.140625 89.535156 217.582031 C 88.523438 218.023438 87.53125 218.507812 86.558594 219.03125 C 85.585938 219.554688 84.636719 220.117188 83.710938 220.71875 C 82.78125 221.316406 81.882812 221.957031 81.007812 222.628906 C 80.132812 223.304688 79.285156 224.011719 78.46875 224.757812 C 77.652344 225.5 76.867188 226.277344 76.113281 227.085938 C 75.359375 227.890625 74.636719 228.730469 73.953125 229.597656 C 73.265625 230.460938 72.617188 231.355469 72.003906 232.273438 C 71.390625 233.195312 70.816406 234.136719 70.28125 235.105469 Z M 70.28125 235.105469 " fill-opacity="0.78" fill-rule="evenodd"/></g><path fill="#2063b2" d="M 11.121094 172.519531 C 12.65625 172.96875 14.078125 173.648438 15.386719 174.570312 C 20.417969 178.503906 16.976562 182.757812 16.53125 185.824219 C 16.316406 187.28125 17.636719 189.621094 21.988281 192.464844 C 16.957031 196.1875 20.339844 199.03125 22.367188 201.769531 C 31.785156 208.566406 18.683594 223.296875 34.21875 234.714844 C 49.898438 241.183594 68.964844 229.773438 81.839844 238.53125 C 82.046875 237.355469 82.214844 236.171875 82.34375 234.984375 C 82.476562 233.792969 82.570312 232.601562 82.625 231.410156 C 82.683594 230.214844 82.703125 229.019531 82.6875 227.824219 C 82.667969 226.628906 82.613281 225.433594 82.523438 224.242188 C 82.433594 223.050781 82.304688 221.863281 82.140625 220.675781 C 81.976562 219.492188 81.773438 218.316406 81.539062 217.144531 C 81.300781 215.972656 81.027344 214.808594 80.71875 213.652344 C 80.40625 212.5 80.0625 211.355469 79.683594 210.222656 C 79.300781 209.089844 78.886719 207.96875 78.4375 206.859375 C 77.988281 205.753906 77.503906 204.660156 76.984375 203.582031 C 76.46875 202.503906 75.917969 201.445312 75.335938 200.402344 C 74.75 199.359375 74.136719 198.332031 73.488281 197.328125 C 72.84375 196.324219 72.164062 195.339844 71.457031 194.375 C 70.75 193.414062 70.015625 192.472656 69.246094 191.554688 C 68.480469 190.636719 67.6875 189.746094 66.867188 188.878906 C 66.046875 188.007812 65.199219 187.167969 64.324219 186.351562 C 63.453125 185.535156 62.554688 184.75 61.632812 183.988281 C 60.710938 183.230469 59.765625 182.5 58.796875 181.800781 C 57.832031 181.097656 56.84375 180.429688 55.832031 179.789062 C 54.824219 179.148438 53.796875 178.539062 52.75 177.964844 C 51.703125 177.390625 50.640625 176.847656 49.5625 176.335938 C 48.480469 175.828125 47.386719 175.351562 46.277344 174.910156 C 45.167969 174.46875 44.042969 174.0625 42.910156 173.691406 C 41.773438 173.316406 40.628906 172.980469 39.472656 172.679688 C 38.320312 172.378906 37.15625 172.113281 35.984375 171.886719 C 34.808594 171.65625 33.632812 171.464844 32.449219 171.308594 C 31.265625 171.15625 30.078125 171.035156 28.886719 170.953125 C 27.695312 170.875 26.5 170.828125 25.308594 170.820312 C 24.113281 170.8125 22.921875 170.84375 21.730469 170.910156 C 20.535156 170.976562 19.347656 171.078125 18.160156 171.21875 C 16.976562 171.359375 15.796875 171.539062 14.621094 171.75 C 13.445312 171.964844 12.277344 172.214844 11.121094 172.5 Z M 11.121094 172.519531 " fill-opacity="0.78" fill-rule="evenodd"/><path fill="#12bcbc" d="M 193.214844 173.25 C 192.480469 173.25 191.75 173.214844 191.019531 173.140625 C 190.289062 173.070312 189.5625 172.964844 188.84375 172.820312 C 188.125 172.675781 187.414062 172.5 186.710938 172.285156 C 186.011719 172.074219 185.320312 171.828125 184.644531 171.546875 C 183.964844 171.265625 183.304688 170.953125 182.65625 170.605469 C 182.007812 170.257812 181.378906 169.882812 180.769531 169.476562 C 180.160156 169.066406 179.570312 168.628906 179.003906 168.164062 C 178.4375 167.699219 177.894531 167.207031 177.375 166.6875 C 176.855469 166.167969 176.363281 165.625 175.898438 165.058594 C 175.433594 164.488281 174.996094 163.898438 174.589844 163.289062 C 174.183594 162.679688 173.804688 162.050781 173.460938 161.402344 C 173.113281 160.753906 172.800781 160.089844 172.519531 159.414062 C 172.238281 158.734375 171.992188 158.042969 171.777344 157.339844 C 171.566406 156.636719 171.386719 155.925781 171.246094 155.207031 C 171.101562 154.484375 170.992188 153.761719 170.921875 153.03125 C 170.847656 152.296875 170.8125 151.566406 170.8125 150.832031 C 170.8125 150.097656 170.847656 149.363281 170.921875 148.632812 C 170.992188 147.902344 171.101562 147.175781 171.242188 146.457031 C 171.386719 145.734375 171.5625 145.023438 171.777344 144.320312 C 171.988281 143.617188 172.238281 142.929688 172.515625 142.25 C 172.796875 141.570312 173.109375 140.90625 173.457031 140.261719 C 173.800781 139.613281 174.179688 138.984375 174.585938 138.371094 C 174.992188 137.761719 175.429688 137.171875 175.894531 136.605469 C 176.359375 136.035156 176.851562 135.492188 177.371094 134.972656 C 177.890625 134.453125 178.433594 133.960938 179 133.496094 C 179.566406 133.03125 180.15625 132.59375 180.765625 132.183594 C 181.375 131.777344 182.003906 131.398438 182.648438 131.054688 C 183.296875 130.707031 183.960938 130.394531 184.636719 130.113281 C 185.316406 129.832031 186.003906 129.585938 186.707031 129.371094 C 187.410156 129.160156 188.117188 128.980469 188.839844 128.835938 C 189.558594 128.695312 190.28125 128.585938 191.011719 128.515625 C 191.742188 128.441406 192.472656 128.40625 193.207031 128.40625 C 193.941406 128.40625 194.671875 128.441406 195.402344 128.515625 C 196.132812 128.585938 196.855469 128.695312 197.578125 128.839844 C 198.296875 128.980469 199.007812 129.160156 199.707031 129.375 C 200.410156 129.585938 201.101562 129.835938 201.777344 130.117188 C 202.453125 130.398438 203.117188 130.710938 203.765625 131.058594 C 204.410156 131.402344 205.039062 131.78125 205.648438 132.1875 C 206.257812 132.597656 206.847656 133.035156 207.414062 133.5 C 207.980469 133.964844 208.523438 134.457031 209.042969 134.976562 C 209.558594 135.496094 210.050781 136.042969 210.515625 136.609375 C 210.980469 137.175781 211.417969 137.765625 211.824219 138.378906 C 212.234375 138.988281 212.609375 139.617188 212.953125 140.265625 C 213.300781 140.914062 213.613281 141.578125 213.894531 142.253906 C 214.175781 142.933594 214.421875 143.625 214.632812 144.328125 C 214.847656 145.03125 215.023438 145.742188 215.167969 146.460938 C 215.308594 147.183594 215.417969 147.910156 215.488281 148.640625 C 215.558594 149.371094 215.59375 150.101562 215.59375 150.839844 C 215.59375 151.570312 215.554688 152.304688 215.484375 153.03125 C 215.410156 153.761719 215.300781 154.488281 215.15625 155.207031 C 215.011719 155.925781 214.835938 156.636719 214.621094 157.339844 C 214.40625 158.039062 214.160156 158.730469 213.878906 159.40625 C 213.597656 160.085938 213.285156 160.746094 212.9375 161.394531 C 212.59375 162.039062 212.214844 162.667969 211.808594 163.277344 C 211.402344 163.886719 210.964844 164.476562 210.5 165.042969 C 210.035156 165.609375 209.542969 166.152344 209.027344 166.671875 C 208.507812 167.191406 207.964844 167.683594 207.398438 168.148438 C 206.832031 168.613281 206.246094 169.050781 205.636719 169.457031 C 205.027344 169.867188 204.402344 170.242188 203.753906 170.589844 C 203.109375 170.933594 202.449219 171.25 201.769531 171.53125 C 201.09375 171.8125 200.40625 172.058594 199.707031 172.273438 C 199.003906 172.488281 198.296875 172.667969 197.578125 172.8125 C 196.859375 172.957031 196.136719 173.0625 195.40625 173.136719 C 194.675781 173.210938 193.945312 173.246094 193.214844 173.25 Z M 193.214844 173.25 " fill-opacity="0.78" fill-rule="evenodd"/><path fill="#00b9f1" d="M 146.316406 204.457031 C 145.648438 204.460938 144.980469 204.429688 144.316406 204.367188 C 143.648438 204.300781 142.988281 204.207031 142.332031 204.078125 C 141.671875 203.949219 141.023438 203.785156 140.382812 203.59375 C 139.742188 203.402344 139.113281 203.175781 138.492188 202.921875 C 137.875 202.667969 137.269531 202.382812 136.679688 202.070312 C 136.089844 201.753906 135.515625 201.410156 134.957031 201.039062 C 134.398438 200.667969 133.859375 200.273438 133.34375 199.847656 C 132.824219 199.425781 132.328125 198.976562 131.851562 198.503906 C 131.378906 198.03125 130.929688 197.535156 130.503906 197.019531 C 130.078125 196.5 129.679688 195.964844 129.304688 195.410156 C 128.933594 194.851562 128.585938 194.277344 128.269531 193.6875 C 127.953125 193.097656 127.667969 192.492188 127.410156 191.875 C 127.152344 191.257812 126.925781 190.625 126.730469 189.984375 C 126.535156 189.34375 126.371094 188.695312 126.238281 188.039062 C 126.105469 187.382812 126.007812 186.71875 125.941406 186.054688 C 125.871094 185.386719 125.839844 184.71875 125.835938 184.046875 C 125.835938 183.378906 125.867188 182.707031 125.933594 182.042969 C 125.996094 181.375 126.09375 180.710938 126.222656 180.054688 C 126.351562 179.398438 126.511719 178.746094 126.707031 178.105469 C 126.898438 177.464844 127.125 176.832031 127.378906 176.214844 C 127.632812 175.59375 127.917969 174.988281 128.234375 174.398438 C 128.546875 173.804688 128.890625 173.230469 129.261719 172.671875 C 129.632812 172.117188 130.03125 171.578125 130.453125 171.058594 C 130.878906 170.539062 131.324219 170.042969 131.796875 169.570312 C 132.269531 169.09375 132.765625 168.644531 133.28125 168.21875 C 133.800781 167.792969 134.335938 167.394531 134.890625 167.019531 C 135.449219 166.648438 136.019531 166.300781 136.609375 165.984375 C 137.199219 165.667969 137.804688 165.382812 138.421875 165.125 C 139.039062 164.867188 139.667969 164.640625 140.308594 164.445312 C 140.949219 164.25 141.597656 164.085938 142.253906 163.957031 C 142.910156 163.824219 143.570312 163.726562 144.238281 163.660156 C 144.902344 163.59375 145.570312 163.558594 146.242188 163.558594 C 146.910156 163.558594 147.578125 163.589844 148.242188 163.65625 C 148.910156 163.71875 149.570312 163.816406 150.226562 163.949219 C 150.882812 164.078125 151.53125 164.242188 152.171875 164.433594 C 152.8125 164.628906 153.441406 164.855469 154.0625 165.109375 C 154.679688 165.367188 155.285156 165.652344 155.875 165.96875 C 156.464844 166.28125 157.039062 166.625 157.597656 167 C 158.152344 167.371094 158.691406 167.769531 159.207031 168.195312 C 159.726562 168.617188 160.21875 169.066406 160.695312 169.542969 C 161.167969 170.015625 161.617188 170.511719 162.042969 171.027344 C 162.464844 171.546875 162.863281 172.085938 163.238281 172.640625 C 163.609375 173.199219 163.953125 173.773438 164.269531 174.363281 C 164.582031 174.953125 164.871094 175.558594 165.125 176.179688 C 165.382812 176.796875 165.609375 177.425781 165.800781 178.070312 C 165.996094 178.710938 166.160156 179.359375 166.289062 180.015625 C 166.421875 180.675781 166.519531 181.335938 166.582031 182.003906 C 166.648438 182.671875 166.683594 183.339844 166.683594 184.007812 C 166.679688 184.675781 166.648438 185.34375 166.582031 186.007812 C 166.515625 186.671875 166.414062 187.332031 166.285156 187.988281 C 166.152344 188.644531 165.992188 189.292969 165.796875 189.929688 C 165.601562 190.570312 165.378906 191.199219 165.121094 191.816406 C 164.867188 192.433594 164.582031 193.035156 164.269531 193.625 C 163.953125 194.214844 163.609375 194.789062 163.242188 195.34375 C 162.871094 195.898438 162.472656 196.433594 162.050781 196.953125 C 161.628906 197.46875 161.179688 197.964844 160.710938 198.4375 C 160.238281 198.910156 159.746094 199.359375 159.230469 199.785156 C 158.714844 200.210938 158.179688 200.609375 157.628906 200.980469 C 157.074219 201.351562 156.503906 201.699219 155.914062 202.015625 C 155.328125 202.332031 154.726562 202.617188 154.109375 202.875 C 153.492188 203.132812 152.867188 203.359375 152.230469 203.554688 C 151.589844 203.753906 150.945312 203.917969 150.292969 204.050781 C 149.636719 204.183594 148.980469 204.28125 148.316406 204.351562 C 147.652344 204.421875 146.984375 204.457031 146.316406 204.457031 Z M 146.316406 204.457031 " fill-opacity="0.78" fill-rule="evenodd"/><path fill="#8dc63f" d="M 196.433594 118.6875 C 195.402344 118.6875 194.382812 118.585938 193.371094 118.382812 C 192.363281 118.183594 191.378906 117.886719 190.429688 117.492188 C 189.476562 117.09375 188.570312 116.613281 187.714844 116.039062 C 186.859375 115.464844 186.066406 114.8125 185.335938 114.082031 C 184.609375 113.355469 183.957031 112.558594 183.386719 111.703125 C 182.8125 110.84375 182.332031 109.9375 181.9375 108.984375 C 181.542969 108.03125 181.246094 107.050781 181.042969 106.039062 C 180.84375 105.027344 180.742188 104.003906 180.742188 102.972656 C 180.742188 101.941406 180.84375 100.917969 181.046875 99.90625 C 181.246094 98.894531 181.542969 97.910156 181.9375 96.957031 C 182.332031 96.003906 182.816406 95.101562 183.390625 94.242188 C 183.960938 93.386719 184.613281 92.589844 185.34375 91.863281 C 186.070312 91.132812 186.863281 90.480469 187.722656 89.910156 C 188.578125 89.335938 189.480469 88.851562 190.433594 88.457031 C 191.386719 88.0625 192.367188 87.765625 193.378906 87.5625 C 194.390625 87.363281 195.410156 87.261719 196.441406 87.265625 C 197.46875 87.265625 198.492188 87.363281 199.5 87.566406 C 200.511719 87.769531 201.492188 88.066406 202.445312 88.460938 C 203.394531 88.859375 204.300781 89.34375 205.15625 89.914062 C 206.011719 90.488281 206.804688 91.140625 207.535156 91.871094 C 208.261719 92.601562 208.910156 93.394531 209.484375 94.253906 C 210.054688 95.113281 210.539062 96.015625 210.933594 96.972656 C 211.328125 97.925781 211.625 98.90625 211.824219 99.917969 C 212.023438 100.929688 212.125 101.953125 212.125 102.984375 C 212.121094 104.015625 212.019531 105.035156 211.816406 106.046875 C 211.613281 107.058594 211.316406 108.039062 210.921875 108.992188 C 210.527344 109.945312 210.042969 110.847656 209.46875 111.703125 C 208.898438 112.5625 208.246094 113.355469 207.519531 114.082031 C 206.789062 114.8125 206 115.460938 205.144531 116.035156 C 204.285156 116.609375 203.382812 117.089844 202.433594 117.488281 C 201.480469 117.882812 200.5 118.179688 199.492188 118.382812 C 198.480469 118.582031 197.460938 118.683594 196.433594 118.6875 Z M 196.433594 118.6875 " fill-opacity="0.78" fill-rule="evenodd"/><g clip-path="url(#8e38ef7770)"><path fill="#ffd900" d="M 204.257812 63.9375 C 204.257812 64.832031 204.347656 65.71875 204.519531 66.59375 C 204.695312 67.46875 204.953125 68.320312 205.292969 69.144531 C 205.632812 69.96875 206.054688 70.753906 206.546875 71.496094 C 207.042969 72.238281 207.605469 72.925781 208.238281 73.558594 C 208.867188 74.191406 209.554688 74.753906 210.296875 75.25 C 211.039062 75.746094 211.820312 76.167969 212.644531 76.507812 C 213.46875 76.851562 214.320312 77.109375 215.195312 77.28125 C 216.070312 77.457031 216.953125 77.542969 217.84375 77.542969 C 218.738281 77.542969 219.621094 77.457031 220.496094 77.28125 C 221.371094 77.109375 222.21875 76.851562 223.042969 76.507812 C 223.867188 76.167969 224.652344 75.746094 225.394531 75.25 C 226.132812 74.753906 226.820312 74.191406 227.453125 73.558594 C 228.082031 72.925781 228.644531 72.238281 229.140625 71.496094 C 229.636719 70.753906 230.054688 69.96875 230.394531 69.144531 C 230.738281 68.320312 230.996094 67.46875 231.167969 66.59375 C 231.34375 65.71875 231.429688 64.832031 231.429688 63.9375 C 231.429688 63.046875 231.34375 62.160156 231.167969 61.285156 C 230.996094 60.410156 230.738281 59.558594 230.394531 58.734375 C 230.054688 57.90625 229.636719 57.125 229.140625 56.382812 C 228.644531 55.636719 228.082031 54.953125 227.453125 54.320312 C 226.820312 53.6875 226.132812 53.125 225.394531 52.628906 C 224.652344 52.132812 223.867188 51.710938 223.042969 51.371094 C 222.21875 51.027344 221.371094 50.769531 220.496094 50.597656 C 219.621094 50.421875 218.738281 50.335938 217.84375 50.335938 C 216.953125 50.335938 216.070312 50.421875 215.195312 50.597656 C 214.320312 50.769531 213.46875 51.027344 212.644531 51.371094 C 211.820312 51.710938 211.039062 52.132812 210.296875 52.628906 C 209.554688 53.125 208.867188 53.6875 208.238281 54.320312 C 207.605469 54.953125 207.042969 55.636719 206.546875 56.382812 C 206.054688 57.125 205.632812 57.90625 205.292969 58.734375 C 204.953125 59.558594 204.695312 60.410156 204.519531 61.285156 C 204.347656 62.160156 204.257812 63.046875 204.257812 63.9375 Z M 204.257812 63.9375 " fill-opacity="0.78" fill-rule="nonzero"/></g><path fill="#009444" d="M 189.140625 39.011719 C 188.308594 39.011719 187.484375 38.933594 186.664062 38.769531 C 185.847656 38.609375 185.054688 38.367188 184.285156 38.050781 C 183.515625 37.730469 182.785156 37.339844 182.089844 36.875 C 181.398438 36.414062 180.757812 35.886719 180.167969 35.296875 C 179.578125 34.707031 179.050781 34.066406 178.589844 33.375 C 178.125 32.679688 177.734375 31.949219 177.414062 31.179688 C 177.097656 30.410156 176.855469 29.613281 176.691406 28.796875 C 176.53125 27.976562 176.449219 27.152344 176.449219 26.316406 C 176.445312 25.484375 176.527344 24.65625 176.691406 23.839844 C 176.851562 23.019531 177.09375 22.226562 177.410156 21.457031 C 177.730469 20.683594 178.121094 19.953125 178.582031 19.257812 C 179.042969 18.566406 179.570312 17.921875 180.160156 17.332031 C 180.746094 16.742188 181.386719 16.21875 182.082031 15.753906 C 182.773438 15.289062 183.503906 14.898438 184.273438 14.578125 C 185.042969 14.257812 185.835938 14.019531 186.652344 13.855469 C 187.46875 13.691406 188.296875 13.609375 189.128906 13.609375 C 189.960938 13.609375 190.785156 13.691406 191.601562 13.855469 C 192.421875 14.015625 193.214844 14.257812 193.984375 14.574219 C 194.753906 14.894531 195.484375 15.285156 196.175781 15.75 C 196.867188 16.210938 197.511719 16.738281 198.097656 17.328125 C 198.6875 17.917969 199.214844 18.558594 199.675781 19.253906 C 200.140625 19.949219 200.53125 20.679688 200.847656 21.449219 C 201.167969 22.21875 201.410156 23.015625 201.570312 23.832031 C 201.734375 24.652344 201.816406 25.476562 201.816406 26.3125 C 201.8125 27.144531 201.730469 27.96875 201.570312 28.785156 C 201.40625 29.605469 201.164062 30.398438 200.84375 31.167969 C 200.527344 31.9375 200.136719 32.667969 199.671875 33.359375 C 199.210938 34.054688 198.6875 34.695312 198.097656 35.285156 C 197.511719 35.871094 196.871094 36.398438 196.179688 36.863281 C 195.488281 37.328125 194.757812 37.71875 193.988281 38.039062 C 193.21875 38.359375 192.429688 38.601562 191.613281 38.765625 C 190.796875 38.929688 189.972656 39.011719 189.140625 39.011719 Z M 189.140625 39.011719 " fill-opacity="0.78" fill-rule="evenodd"/><path fill="#56ba48" d="M 184.835938 70.667969 C 184.285156 70.667969 183.742188 70.613281 183.199219 70.507812 C 182.660156 70.398438 182.136719 70.242188 181.628906 70.03125 C 181.121094 69.820312 180.636719 69.5625 180.179688 69.253906 C 179.722656 68.949219 179.300781 68.601562 178.910156 68.210938 C 178.523438 67.820312 178.175781 67.398438 177.867188 66.941406 C 177.5625 66.480469 177.304688 66 177.09375 65.488281 C 176.882812 64.980469 176.726562 64.457031 176.617188 63.914062 C 176.511719 63.375 176.457031 62.828125 176.457031 62.277344 C 176.457031 61.726562 176.511719 61.183594 176.617188 60.640625 C 176.726562 60.101562 176.882812 59.578125 177.09375 59.066406 C 177.304688 58.558594 177.5625 58.074219 177.867188 57.617188 C 178.175781 57.160156 178.523438 56.734375 178.910156 56.347656 C 179.300781 55.957031 179.722656 55.609375 180.179688 55.304688 C 180.636719 54.996094 181.121094 54.738281 181.628906 54.527344 C 182.136719 54.316406 182.660156 54.15625 183.199219 54.050781 C 183.742188 53.941406 184.285156 53.890625 184.835938 53.890625 C 185.386719 53.890625 185.929688 53.941406 186.46875 54.050781 C 187.007812 54.15625 187.535156 54.316406 188.042969 54.527344 C 188.550781 54.738281 189.03125 54.996094 189.492188 55.304688 C 189.949219 55.609375 190.371094 55.957031 190.761719 56.347656 C 191.148438 56.734375 191.496094 57.160156 191.800781 57.617188 C 192.109375 58.074219 192.367188 58.558594 192.574219 59.066406 C 192.785156 59.578125 192.945312 60.101562 193.054688 60.640625 C 193.160156 61.183594 193.214844 61.726562 193.214844 62.277344 C 193.210938 62.828125 193.15625 63.375 193.050781 63.914062 C 192.941406 64.453125 192.78125 64.976562 192.570312 65.488281 C 192.359375 65.996094 192.101562 66.476562 191.796875 66.933594 C 191.488281 67.394531 191.144531 67.816406 190.753906 68.207031 C 190.367188 68.59375 189.941406 68.941406 189.484375 69.25 C 189.027344 69.554688 188.546875 69.8125 188.039062 70.023438 C 187.53125 70.234375 187.007812 70.394531 186.46875 70.503906 C 185.929688 70.613281 185.386719 70.667969 184.835938 70.667969 Z M 184.835938 70.667969 " fill-opacity="0.78" fill-rule="evenodd"/><g clip-path="url(#6580ea1273)"><path fill="#fbad17" d="M 167.359375 17.320312 C 166.8125 17.320312 166.265625 17.265625 165.726562 17.160156 C 165.1875 17.050781 164.664062 16.890625 164.15625 16.679688 C 163.648438 16.46875 163.164062 16.210938 162.707031 15.90625 C 162.25 15.597656 161.824219 15.25 161.4375 14.863281 C 161.046875 14.472656 160.699219 14.050781 160.394531 13.589844 C 160.089844 13.132812 159.832031 12.648438 159.621094 12.140625 C 159.410156 11.632812 159.25 11.105469 159.144531 10.566406 C 159.035156 10.027344 158.984375 9.480469 158.984375 8.929688 C 158.984375 8.378906 159.035156 7.832031 159.144531 7.292969 C 159.25 6.753906 159.410156 6.226562 159.621094 5.71875 C 159.832031 5.210938 160.089844 4.726562 160.394531 4.269531 C 160.699219 3.8125 161.046875 3.386719 161.4375 2.996094 C 161.824219 2.609375 162.25 2.261719 162.707031 1.953125 C 163.164062 1.648438 163.648438 1.390625 164.15625 1.179688 C 164.664062 0.96875 165.1875 0.808594 165.726562 0.699219 C 166.265625 0.59375 166.8125 0.539062 167.359375 0.539062 C 167.910156 0.539062 168.457031 0.59375 168.996094 0.699219 C 169.535156 0.808594 170.058594 0.96875 170.566406 1.179688 C 171.074219 1.390625 171.558594 1.648438 172.015625 1.953125 C 172.472656 2.261719 172.898438 2.609375 173.285156 2.996094 C 173.675781 3.386719 174.023438 3.8125 174.328125 4.269531 C 174.632812 4.726562 174.890625 5.210938 175.101562 5.71875 C 175.3125 6.226562 175.472656 6.753906 175.578125 7.292969 C 175.6875 7.832031 175.738281 8.378906 175.738281 8.929688 C 175.738281 9.480469 175.683594 10.023438 175.574219 10.566406 C 175.46875 11.105469 175.308594 11.628906 175.097656 12.136719 C 174.886719 12.644531 174.628906 13.128906 174.320312 13.585938 C 174.015625 14.042969 173.667969 14.46875 173.28125 14.855469 C 172.890625 15.246094 172.46875 15.59375 172.011719 15.898438 C 171.554688 16.207031 171.070312 16.464844 170.5625 16.675781 C 170.058594 16.886719 169.535156 17.046875 168.996094 17.15625 C 168.457031 17.261719 167.910156 17.316406 167.359375 17.320312 Z M 167.359375 17.320312 " fill-opacity="0.78" fill-rule="evenodd"/></g><path fill="#f15c22" d="M 218.824219 36.023438 C 218.40625 36.019531 217.996094 35.976562 217.589844 35.894531 C 217.179688 35.8125 216.785156 35.6875 216.402344 35.527344 C 216.019531 35.367188 215.652344 35.171875 215.308594 34.9375 C 214.964844 34.703125 214.644531 34.441406 214.351562 34.144531 C 214.058594 33.847656 213.796875 33.527344 213.566406 33.179688 C 213.335938 32.832031 213.144531 32.464844 212.984375 32.082031 C 212.828125 31.695312 212.710938 31.296875 212.628906 30.890625 C 212.550781 30.480469 212.511719 30.070312 212.511719 29.652344 C 212.511719 29.234375 212.554688 28.824219 212.636719 28.414062 C 212.71875 28.007812 212.839844 27.609375 213 27.226562 C 213.160156 26.839844 213.355469 26.476562 213.589844 26.128906 C 213.820312 25.785156 214.085938 25.464844 214.378906 25.171875 C 214.675781 24.875 214.996094 24.613281 215.339844 24.382812 C 215.6875 24.152344 216.054688 23.957031 216.4375 23.800781 C 216.820312 23.640625 217.21875 23.519531 217.625 23.441406 C 218.035156 23.359375 218.445312 23.320312 218.863281 23.320312 C 219.277344 23.320312 219.691406 23.363281 220.097656 23.445312 C 220.507812 23.527344 220.902344 23.648438 221.285156 23.808594 C 221.671875 23.964844 222.035156 24.164062 222.382812 24.394531 C 222.726562 24.625 223.046875 24.890625 223.339844 25.183594 C 223.636719 25.480469 223.898438 25.800781 224.128906 26.144531 C 224.359375 26.492188 224.554688 26.859375 224.714844 27.242188 C 224.871094 27.628906 224.992188 28.023438 225.074219 28.433594 C 225.15625 28.84375 225.195312 29.253906 225.195312 29.671875 C 225.195312 30.089844 225.152344 30.503906 225.070312 30.914062 C 224.988281 31.320312 224.867188 31.71875 224.703125 32.105469 C 224.542969 32.492188 224.347656 32.855469 224.113281 33.203125 C 223.882812 33.550781 223.617188 33.871094 223.320312 34.167969 C 223.027344 34.460938 222.703125 34.722656 222.355469 34.957031 C 222.007812 35.1875 221.644531 35.382812 221.257812 35.542969 C 220.871094 35.699219 220.472656 35.820312 220.0625 35.902344 C 219.65625 35.980469 219.242188 36.023438 218.824219 36.023438 Z M 218.824219 36.023438 " fill-opacity="0.78" fill-rule="evenodd"/><path fill="#fbad17" d="M 68.070312 100.808594 C 68.070312 102.546875 68.15625 104.28125 68.328125 106.011719 C 68.496094 107.742188 68.75 109.457031 69.089844 111.164062 C 69.429688 112.867188 69.847656 114.550781 70.351562 116.214844 C 70.855469 117.878906 71.441406 119.511719 72.105469 121.117188 C 72.769531 122.722656 73.511719 124.292969 74.328125 125.824219 C 75.148438 127.359375 76.039062 128.847656 77.003906 130.292969 C 77.96875 131.738281 79 133.132812 80.101562 134.476562 C 81.203125 135.820312 82.367188 137.105469 83.59375 138.335938 C 84.820312 139.5625 86.105469 140.730469 87.445312 141.832031 C 88.789062 142.933594 90.179688 143.96875 91.625 144.933594 C 93.066406 145.898438 94.554688 146.792969 96.085938 147.609375 C 97.617188 148.429688 99.183594 149.171875 100.785156 149.835938 C 102.390625 150.503906 104.023438 151.085938 105.683594 151.59375 C 107.34375 152.097656 109.027344 152.519531 110.726562 152.859375 C 112.429688 153.195312 114.144531 153.453125 115.871094 153.621094 C 117.597656 153.792969 119.332031 153.878906 121.066406 153.878906 C 122.800781 153.878906 124.535156 153.792969 126.261719 153.621094 C 127.988281 153.453125 129.703125 153.195312 131.40625 152.859375 C 133.109375 152.519531 134.789062 152.097656 136.449219 151.59375 C 138.109375 151.085938 139.742188 150.503906 141.347656 149.835938 C 142.949219 149.171875 144.519531 148.429688 146.046875 147.609375 C 147.578125 146.792969 149.066406 145.898438 150.507812 144.933594 C 151.953125 143.96875 153.34375 142.933594 154.6875 141.832031 C 156.027344 140.730469 157.3125 139.5625 158.539062 138.335938 C 159.765625 137.105469 160.929688 135.820312 162.03125 134.476562 C 163.132812 133.132812 164.167969 131.738281 165.128906 130.292969 C 166.09375 128.847656 166.984375 127.359375 167.804688 125.824219 C 168.621094 124.292969 169.363281 122.722656 170.027344 121.117188 C 170.691406 119.511719 171.277344 117.878906 171.78125 116.214844 C 172.285156 114.550781 172.703125 112.867188 173.042969 111.164062 C 173.382812 109.457031 173.636719 107.742188 173.808594 106.011719 C 173.976562 104.28125 174.0625 102.546875 174.0625 100.808594 C 174.0625 99.070312 173.976562 97.339844 173.808594 95.609375 C 173.636719 93.878906 173.382812 92.160156 173.042969 90.457031 C 172.703125 88.753906 172.285156 87.066406 171.78125 85.40625 C 171.277344 83.742188 170.691406 82.109375 170.027344 80.5 C 169.363281 78.894531 168.621094 77.328125 167.804688 75.792969 C 166.984375 74.261719 166.09375 72.773438 165.128906 71.328125 C 164.167969 69.882812 163.132812 68.488281 162.03125 67.144531 C 160.929688 65.800781 159.765625 64.515625 158.539062 63.285156 C 157.3125 62.054688 156.027344 60.890625 154.6875 59.789062 C 153.34375 58.683594 151.953125 57.652344 150.507812 56.6875 C 149.066406 55.71875 147.578125 54.828125 146.046875 54.007812 C 144.519531 53.1875 142.949219 52.445312 141.347656 51.78125 C 139.742188 51.117188 138.109375 50.53125 136.449219 50.027344 C 134.789062 49.523438 133.109375 49.101562 131.40625 48.761719 C 129.703125 48.421875 127.988281 48.167969 126.261719 47.996094 C 124.535156 47.828125 122.800781 47.742188 121.066406 47.742188 C 119.332031 47.742188 117.597656 47.828125 115.871094 47.996094 C 114.144531 48.167969 112.429688 48.421875 110.726562 48.761719 C 109.027344 49.101562 107.34375 49.523438 105.683594 50.027344 C 104.023438 50.53125 102.390625 51.117188 100.785156 51.78125 C 99.183594 52.445312 97.617188 53.1875 96.085938 54.007812 C 94.554688 54.828125 93.066406 55.71875 91.625 56.6875 C 90.179688 57.652344 88.789062 58.683594 87.445312 59.789062 C 86.105469 60.890625 84.820312 62.054688 83.59375 63.285156 C 82.367188 64.515625 81.203125 65.800781 80.101562 67.144531 C 79 68.488281 77.96875 69.882812 77.003906 71.328125 C 76.039062 72.773438 75.148438 74.261719 74.328125 75.792969 C 73.511719 77.328125 72.769531 78.894531 72.105469 80.5 C 71.441406 82.109375 70.855469 83.742188 70.351562 85.40625 C 69.847656 87.066406 69.429688 88.753906 69.089844 90.457031 C 68.75 92.160156 68.496094 93.878906 68.328125 95.609375 C 68.15625 97.339844 68.070312 99.070312 68.070312 100.808594 Z M 68.070312 100.808594 " fill-opacity="0.78" fill-rule="nonzero"/><path fill="#ec008b" d="M 91.789062 20.484375 C 66.394531 25.730469 45.117188 38.46875 32.570312 56.792969 C 32.675781 57.566406 32.808594 58.339844 32.964844 59.109375 C 33.121094 59.875 33.300781 60.636719 33.5 61.394531 C 33.703125 62.152344 33.929688 62.902344 34.179688 63.644531 C 34.429688 64.386719 34.699219 65.121094 34.996094 65.84375 C 35.289062 66.570312 35.605469 67.289062 35.945312 67.992188 C 36.28125 68.699219 36.644531 69.394531 37.023438 70.078125 C 37.40625 70.761719 37.808594 71.433594 38.230469 72.089844 C 38.65625 72.75 39.097656 73.394531 39.5625 74.027344 C 40.023438 74.65625 40.507812 75.273438 41.007812 75.875 C 41.511719 76.476562 42.03125 77.0625 42.566406 77.632812 C 43.105469 78.199219 43.660156 78.753906 44.230469 79.289062 C 44.800781 79.820312 45.390625 80.339844 45.992188 80.835938 C 46.597656 81.335938 47.214844 81.8125 47.847656 82.273438 C 48.480469 82.734375 49.128906 83.171875 49.789062 83.59375 C 50.449219 84.011719 51.121094 84.410156 51.808594 84.789062 C 52.492188 85.167969 53.191406 85.523438 53.898438 85.859375 C 54.605469 86.195312 55.320312 86.507812 56.046875 86.796875 C 56.773438 87.085938 57.507812 87.355469 58.25 87.597656 C 58.996094 87.84375 59.746094 88.066406 60.5 88.265625 C 61.257812 88.460938 62.019531 88.636719 62.789062 88.789062 C 63.554688 88.9375 64.328125 89.066406 65.101562 89.167969 C 65.878906 89.273438 66.65625 89.351562 67.4375 89.40625 C 68.21875 89.460938 69 89.492188 69.78125 89.496094 C 70.5625 89.503906 71.34375 89.484375 72.125 89.445312 C 72.90625 89.402344 73.6875 89.335938 74.464844 89.246094 C 75.238281 89.152344 76.011719 89.039062 76.785156 88.902344 C 77.554688 88.761719 78.316406 88.601562 79.078125 88.414062 C 79.839844 88.226562 80.589844 88.019531 81.339844 87.785156 C 82.085938 87.554688 82.824219 87.296875 83.554688 87.019531 C 84.285156 86.742188 85.007812 86.441406 85.722656 86.117188 C 86.433594 85.792969 87.136719 85.449219 87.828125 85.082031 C 88.519531 84.714844 89.195312 84.328125 89.863281 83.917969 C 90.53125 83.507812 91.183594 83.078125 91.824219 82.628906 C 92.464844 82.179688 93.09375 81.710938 93.703125 81.222656 C 94.316406 80.734375 94.910156 80.226562 95.492188 79.703125 C 96.070312 79.175781 96.636719 78.632812 97.183594 78.074219 C 97.730469 77.511719 98.257812 76.9375 98.769531 76.34375 C 99.277344 75.75 99.769531 75.140625 100.246094 74.515625 C 100.71875 73.894531 101.171875 73.253906 101.605469 72.605469 C 102.039062 71.953125 102.453125 71.289062 102.84375 70.609375 C 103.238281 69.933594 103.609375 69.242188 103.960938 68.542969 C 104.308594 67.84375 104.636719 67.132812 104.945312 66.410156 C 105.25 65.691406 105.53125 64.960938 105.792969 64.222656 C 106.054688 63.484375 106.292969 62.738281 106.507812 61.984375 C 106.722656 61.230469 106.914062 60.472656 107.082031 59.707031 C 107.25 58.941406 107.394531 58.171875 107.515625 57.398438 C 107.632812 56.625 107.730469 55.847656 107.800781 55.066406 C 107.875 54.285156 107.921875 53.503906 107.945312 52.722656 C 107.96875 51.941406 107.96875 51.15625 107.945312 50.375 C 107.921875 49.589844 107.871094 48.808594 107.796875 48.03125 C 107.726562 47.25 107.628906 46.472656 107.507812 45.699219 C 107.386719 44.925781 107.242188 44.15625 107.074219 43.390625 C 106.902344 42.625 106.710938 41.867188 106.496094 41.113281 C 106.28125 40.359375 106.042969 39.613281 105.78125 38.875 C 105.519531 38.136719 105.234375 37.410156 104.925781 36.6875 C 104.621094 35.96875 104.289062 35.257812 103.941406 34.558594 C 103.589844 33.859375 103.21875 33.167969 102.824219 32.492188 C 102.429688 31.816406 102.015625 31.152344 101.582031 30.5 C 101.148438 29.847656 100.691406 29.210938 100.21875 28.585938 C 99.746094 27.964844 99.25 27.355469 98.742188 26.765625 C 98.230469 26.171875 97.699219 25.59375 97.152344 25.035156 C 96.605469 24.476562 96.039062 23.933594 95.460938 23.410156 C 94.878906 22.882812 94.28125 22.378906 93.671875 21.890625 C 93.058594 21.402344 92.433594 20.933594 91.789062 20.484375 Z M 91.789062 20.484375 " fill-opacity="0.78" fill-rule="evenodd"/><path fill="#56ba48" d="M 138.910156 77.554688 C 137.871094 77.554688 136.832031 77.503906 135.796875 77.402344 C 134.761719 77.300781 133.738281 77.148438 132.71875 76.945312 C 131.695312 76.742188 130.691406 76.488281 129.695312 76.1875 C 128.699219 75.886719 127.722656 75.535156 126.761719 75.136719 C 125.800781 74.738281 124.863281 74.296875 123.945312 73.804688 C 123.027344 73.3125 122.136719 72.78125 121.273438 72.203125 C 120.410156 71.625 119.574219 71.003906 118.769531 70.34375 C 117.96875 69.683594 117.199219 68.984375 116.460938 68.25 C 115.726562 67.515625 115.03125 66.742188 114.371094 65.941406 C 113.710938 65.136719 113.089844 64.300781 112.515625 63.433594 C 111.9375 62.570312 111.402344 61.675781 110.910156 60.757812 C 110.421875 59.839844 109.976562 58.902344 109.578125 57.941406 C 109.179688 56.980469 108.832031 56 108.53125 55.003906 C 108.226562 54.007812 107.976562 53 107.773438 51.976562 C 107.570312 50.957031 107.417969 49.929688 107.3125 48.894531 C 107.210938 47.855469 107.160156 46.820312 107.160156 45.777344 C 107.160156 44.738281 107.210938 43.699219 107.3125 42.660156 C 107.414062 41.625 107.566406 40.597656 107.769531 39.578125 C 107.972656 38.554688 108.222656 37.546875 108.527344 36.550781 C 108.828125 35.554688 109.175781 34.574219 109.574219 33.613281 C 109.972656 32.652344 110.417969 31.710938 110.90625 30.792969 C 111.394531 29.875 111.929688 28.984375 112.507812 28.117188 C 113.085938 27.253906 113.703125 26.417969 114.363281 25.613281 C 115.019531 24.808594 115.71875 24.039062 116.453125 23.300781 C 117.1875 22.566406 117.957031 21.867188 118.761719 21.207031 C 119.566406 20.546875 120.398438 19.925781 121.261719 19.347656 C 122.128906 18.769531 123.019531 18.234375 123.933594 17.742188 C 124.851562 17.253906 125.789062 16.808594 126.75 16.410156 C 127.710938 16.011719 128.6875 15.660156 129.683594 15.359375 C 130.675781 15.054688 131.683594 14.804688 132.703125 14.601562 C 133.722656 14.398438 134.75 14.246094 135.785156 14.140625 C 136.820312 14.039062 137.855469 13.988281 138.898438 13.988281 C 139.9375 13.988281 140.972656 14.039062 142.007812 14.140625 C 143.042969 14.242188 144.070312 14.394531 145.089844 14.597656 C 146.109375 14.800781 147.117188 15.054688 148.109375 15.355469 C 149.105469 15.660156 150.082031 16.007812 151.042969 16.40625 C 152.003906 16.804688 152.941406 17.25 153.859375 17.742188 C 154.777344 18.230469 155.667969 18.765625 156.53125 19.34375 C 157.394531 19.921875 158.230469 20.542969 159.035156 21.203125 C 159.835938 21.863281 160.605469 22.558594 161.339844 23.296875 C 162.078125 24.03125 162.773438 24.804688 163.433594 25.609375 C 164.09375 26.414062 164.710938 27.246094 165.289062 28.113281 C 165.867188 28.976562 166.402344 29.871094 166.890625 30.789062 C 167.378906 31.707031 167.824219 32.644531 168.222656 33.609375 C 168.621094 34.570312 168.96875 35.546875 169.273438 36.542969 C 169.574219 37.539062 169.824219 38.550781 170.027344 39.570312 C 170.230469 40.589844 170.382812 41.621094 170.484375 42.65625 C 170.585938 43.691406 170.640625 44.730469 170.640625 45.769531 C 170.636719 46.8125 170.585938 47.847656 170.480469 48.882812 C 170.378906 49.917969 170.222656 50.945312 170.019531 51.964844 C 169.816406 52.984375 169.5625 53.992188 169.257812 54.988281 C 168.957031 55.984375 168.605469 56.960938 168.207031 57.921875 C 167.808594 58.882812 167.367188 59.820312 166.875 60.738281 C 166.386719 61.65625 165.851562 62.546875 165.273438 63.410156 C 164.695312 64.277344 164.078125 65.109375 163.417969 65.914062 C 162.761719 66.71875 162.0625 67.488281 161.328125 68.222656 C 160.59375 68.960938 159.824219 69.65625 159.023438 70.316406 C 158.21875 70.976562 157.386719 71.597656 156.523438 72.175781 C 155.660156 72.753906 154.769531 73.289062 153.855469 73.78125 C 152.941406 74.269531 152.003906 74.714844 151.042969 75.117188 C 150.085938 75.515625 149.109375 75.867188 148.113281 76.167969 C 147.121094 76.472656 146.113281 76.726562 145.097656 76.929688 C 144.078125 77.136719 143.050781 77.289062 142.019531 77.394531 C 140.984375 77.496094 139.949219 77.550781 138.910156 77.554688 Z M 138.910156 77.554688 " fill-opacity="0.78" fill-rule="evenodd"/></g></g></g></svg>