<svg width="39" height="43" viewBox="0 0 39 43" fill="none" xmlns="http://www.w3.org/2000/svg">
<path d="M14.062 30.4537C17.2199 30.4537 20.1248 29.3127 22.4721 27.4094L36.1595 42.2316L39 39.1547L25.3126 24.3336C27.0704 21.7918 28.124 18.6463 28.124 15.2268C28.124 6.81727 21.8283 0 14.062 0C6.29577 0 0 6.81727 0 15.2268C0 23.6364 6.29577 30.4537 14.062 30.4537ZM14.062 4.35052C19.6004 4.35052 24.1063 9.22964 24.1063 15.2268C24.1063 21.224 19.6004 26.1031 14.062 26.1031C8.52359 26.1031 4.01772 21.224 4.01772 15.2268C4.01772 9.22964 8.52359 4.35052 14.062 4.35052Z" fill="#DF0074"/>
</svg>
