<svg width="31" height="34" viewBox="0 0 31 34" fill="none" xmlns="http://www.w3.org/2000/svg">
<path d="M11.1775 24.2068C13.6876 24.2068 15.9966 23.2999 17.8624 21.7869L28.7421 33.5687L31 31.123L20.1203 19.3421C21.5175 17.3217 22.355 14.8215 22.355 12.1034C22.355 5.41886 17.3507 0 11.1775 0C5.00433 0 0 5.41886 0 12.1034C0 18.7879 5.00433 24.2068 11.1775 24.2068ZM11.1775 3.45811C15.5798 3.45811 19.1614 7.33638 19.1614 12.1034C19.1614 16.8704 15.5798 20.7486 11.1775 20.7486C6.77516 20.7486 3.19357 16.8704 3.19357 12.1034C3.19357 7.33638 6.77516 3.45811 11.1775 3.45811Z" fill="black"/>
</svg>
