<svg width="13" height="13" viewBox="0 0 13 13" fill="none" xmlns="http://www.w3.org/2000/svg">
<path d="M1.23613 3.84829H10.9826V11.7673C10.9826 12.1037 10.7099 12.3765 10.3735 12.3765H1.84529C1.50886 12.3765 1.23613 12.1037 1.23613 11.7673V3.84829ZM2.45444 5.0666V11.1582H9.76431V5.0666H2.45444ZM4.28191 6.28491H5.50022V9.93984H4.28191V6.28491ZM6.71853 6.28491H7.93684V9.93984H6.71853V6.28491ZM3.0636 2.02082V0.802515C3.0636 0.46609 3.33633 0.193359 3.67275 0.193359H8.54599C8.88243 0.193359 9.15515 0.46609 9.15515 0.802515V2.02082H12.2009V3.23914H0.0178223V2.02082H3.0636ZM4.28191 1.41167V2.02082H7.93684V1.41167H4.28191Z" fill="white"/>
</svg>
